<?xml version="1.0" encoding="UTF-8"?>
<svg xmlns="http://www.w3.org/2000/svg" viewBox="0 0 187.101 218.126">
  <defs>
    <style>
      .c {
        fill: #000;
        stroke-width: 0px;
      }
    </style>
  </defs>
  <g id="a" data-name="KUTUN">
    <g>
      <path class="c" d="M5.224,203.354l7.398-9.598h3.774l-6.049,7.798,6.124,10.473h-3.699l-4.524-7.773-3.024,3.874v3.899h-3.199v-18.271h3.199v9.598Z"/>
      <path class="c" d="M43.75,193.756h3.199v11.397c0,2.624,1.425,4.074,4.023,4.074s4.05-1.476,4.05-4.074v-11.397h3.199v11.597c0,4.274-2.8,6.974-7.249,6.974-4.424,0-7.223-2.674-7.223-6.974v-11.597Z"/>
      <path class="c" d="M85.55,193.756h13.896v2.949h-5.349v15.321h-3.199v-15.321h-5.349v-2.949Z"/>
      <path class="c" d="M126.774,193.756h3.199v11.397c0,2.624,1.425,4.074,4.024,4.074s4.049-1.476,4.049-4.074v-11.397h3.199v11.597c0,4.274-2.8,6.974-7.248,6.974-4.424,0-7.224-2.674-7.224-6.974v-11.597Z"/>
      <path class="c" d="M170.175,212.027v-18.271h3.175l8.572,12.947v-12.947h3.149v18.271h-3.149l-8.598-12.947v12.947h-3.149Z"/>
    </g>
  </g>
  <g id="b" data-name="ì">
    <path class="c" d="M81.767,1.6c3.267-1.199,5.753-1.723,7.467-1.576,1.71.151,4.277.675,7.7,1.576,10.887,10.053,21.816,20.142,32.783,30.27,10.883,10.049,21.88,19.988,32.992,29.816l1.633,1.765c1.011,1.287,2.19,2.576,3.526,3.864.31,4.652.31,8.215,0,10.69-.313,2.476-1.323,5.739-3.033,9.79-10.733,12.304-21.391,24.57-31.967,36.796-10.58,12.229-21.157,24.418-31.733,36.57-2.957,1.203-8.597-1.16-16.917-7.089-8.324-5.925-17.114-12.976-26.367-21.155-9.257-8.175-17.697-16.277-25.317-24.306-7.624-8.024-12.133-13.615-13.533-16.766.153-1.498.35-3.038.583-4.613.233-1.576.503-3.186.817-4.839,11.043-12.452,21.503-25.656,31.383-39.609,9.876-13.954,19.87-27.682,29.983-41.185ZM85.734,27.481l-9.567,12.153s-34.845,46.525-36.167,48.161l49,46.136,8.633,3.825,8.866-7.201,48.301-53.788-54.601-48.836-6.066-3.826-4.2.45-4.2,2.926ZM84.8,72.041c1.553-1.801,2.76-3.112,3.617-3.938.843-.813,2.412-1.447,4.699-1.897l1.578.06c1.856.406,3.943.356,6.207.599,1.027.11,3.309,1.719,3.789,2.117.506.42,2.178,2.771,2.278,3.734.402,3.895-.547,6.751-.7,8.552-.282,1.489-.507,2.703-.913,4.918-.134.733-1.679,1.908-1.77,1.946-.41.169-3.645,1.175-4.434,1.351-1.014.225-1.983.489-2.917.788-3.266,0-5.447-.147-6.533-.45-1.09-.299-2.723-1.8-4.9-4.501-.933-2.701-1.323-4.874-1.167-6.526.153-1.649.543-3.9,1.167-6.751Z"/>
  </g>
</svg>